<svg width="617" height="465" viewBox="0 0 617 465" fill="none" xmlns="http://www.w3.org/2000/svg">
<g clip-path="url(#clip0_1_89)">
<path d="M228.248 123.766C254.824 106.602 291.428 113.271 317.321 131.456C325.771 137.472 333.532 144.402 340.464 152.12C344.506 156.557 348.338 161.215 352.003 166.034C352.907 167.216 353.805 168.41 354.687 169.616C355.29 170.431 355.888 171.252 356.481 172.078C363.915 182.418 370.73 193.297 377.402 204.076C394.057 230.985 411.146 258.695 436.523 277.587C441.751 281.479 449.046 284.983 454.402 281.267C459.051 278.04 459.25 271.255 458.192 265.694C454.259 245.092 440.072 228.02 425.001 213.446C409.929 198.872 393.245 185.51 381.857 167.899C370.469 150.289 365.266 126.778 375.24 108.334C383.837 92.4399 402.332 83.5245 420.386 83.1092C438.438 82.6979 455.977 89.7201 471.25 99.3625C486.521 109.009 499.95 121.249 513.965 132.645C522.413 139.521 534.209 146.344 543.415 140.522C551.192 135.602 551.799 123.792 547.164 115.84C542.529 107.888 534.257 102.891 526.327 98.2306C501.706 83.7559 477.084 69.2826 452.462 54.8106C444.908 50.3743 437.189 45.7963 431.613 39.0317C426.035 32.2711 422.939 22.7693 426.014 14.5596C429.046 6.46916 437.517 1.33184 446.087 0.259714C454.652 -0.809934 463.29 1.56652 471.301 4.78551C501.324 16.8516 572.018 95.7894 590.859 109.285C602.967 117.953 615.687 128.927 616.911 143.774C618.437 162.257 600.059 177.596 581.612 179.389C563.168 181.187 545.292 173.161 528.812 164.676C512.332 156.191 495.513 146.836 477.015 145.658C458.518 144.481 437.764 154.376 433.379 172.396C429.566 188.077 439.26 204.257 451.888 214.29C461.772 222.146 473.372 227.377 484.577 233.259C487.688 234.888 490.767 236.572 493.77 238.372C501.458 242.989 508.645 248.396 515.213 254.504C522.108 260.906 528.298 268.029 533.676 275.752C537.967 281.905 541.711 288.423 544.865 295.231C545.346 296.271 545.812 297.325 546.265 298.394C546.694 299.416 547.109 300.451 547.503 301.496C552.646 315.054 554.65 330.247 548.08 342.903C541.526 355.525 527.331 362.999 513.157 364.036C504.958 364.525 496.742 363.439 488.952 360.836C483.222 358.973 477.676 356.588 472.383 353.71C447.843 340.528 428.415 319.626 410.672 298.138C392.933 276.652 376.229 254.028 355.17 235.789C334.112 217.546 307.723 203.754 279.87 203.963C252.018 204.169 223.306 221.151 215.395 247.875C203.865 227.993 196.068 205.327 197.097 182.364C198.127 159.402 208.948 136.232 228.248 123.766Z" fill="#3F3D56"/>
<path d="M336.305 198.055C337.995 198.055 339.365 196.684 339.365 194.993C339.365 193.302 337.995 191.931 336.305 191.931C334.615 191.931 333.245 193.302 333.245 194.993C333.245 196.684 334.615 198.055 336.305 198.055Z" fill="#6E54AC"/>
<path d="M220.985 202.433C223.598 202.433 225.716 200.314 225.716 197.699C225.716 195.084 223.598 192.964 220.985 192.964C218.372 192.964 216.254 195.084 216.254 197.699C216.254 200.314 218.372 202.433 220.985 202.433Z" fill="#FF6584"/>
<path d="M562.933 160.542C563.899 160.542 564.682 159.759 564.682 158.793C564.682 157.827 563.899 157.043 562.933 157.043C561.968 157.043 561.185 157.827 561.185 158.793C561.185 159.759 561.968 160.542 562.933 160.542Z" fill="#FF6584"/>
<path d="M527.564 66.5246C528.53 66.5246 529.312 65.7414 529.312 64.7753C529.312 63.8091 528.53 63.0259 527.564 63.0259C526.599 63.0259 525.816 63.8091 525.816 64.7753C525.816 65.7414 526.599 66.5246 527.564 66.5246Z" fill="#FF6584"/>
<path d="M482.585 237.333C483.082 235.899 483.75 234.531 484.577 233.259C487.688 234.888 490.767 236.572 493.77 238.372C501.458 242.989 508.645 248.396 515.213 254.504C512.569 258.099 508.725 260.627 504.378 261.628C500.031 262.628 495.469 262.036 491.521 259.959C487.573 257.881 484.501 254.455 482.861 250.304C481.221 246.153 481.124 241.551 482.585 237.333L482.585 237.333Z" fill="#FF6584"/>
<path d="M259.648 180.403C260.636 180.403 261.436 179.602 261.436 178.614C261.436 177.626 260.636 176.825 259.648 176.825C258.661 176.825 257.861 177.626 257.861 178.614C257.861 179.602 258.661 180.403 259.648 180.403Z" fill="#F0F0F0"/>
<path d="M478.683 48.0347C479.67 48.0347 480.471 47.2337 480.471 46.2456C480.471 45.2575 479.67 44.4565 478.683 44.4565C477.696 44.4565 476.895 45.2575 476.895 46.2456C476.895 47.2337 477.696 48.0347 478.683 48.0347Z" fill="#F0F0F0"/>
<path d="M462.586 16.1666C463.573 16.1666 464.374 15.3656 464.374 14.3775C464.374 13.3894 463.573 12.5884 462.586 12.5884C461.599 12.5884 460.798 13.3894 460.798 14.3775C460.798 15.3656 461.599 16.1666 462.586 16.1666Z" fill="#F0F0F0"/>
<path d="M589.178 134.957C590.165 134.957 590.966 134.156 590.966 133.168C590.966 132.18 590.165 131.379 589.178 131.379C588.19 131.379 587.39 132.18 587.39 133.168C587.39 134.156 588.19 134.957 589.178 134.957Z" fill="#F0F0F0"/>
<path d="M495.269 137.527C496.256 137.527 497.056 136.726 497.056 135.738C497.056 134.75 496.256 133.949 495.269 133.949C494.281 133.949 493.481 134.75 493.481 135.738C493.481 136.726 494.281 137.527 495.269 137.527Z" fill="#F0F0F0"/>
<path d="M445.435 308.171C446.422 308.171 447.223 307.37 447.223 306.382C447.223 305.394 446.422 304.593 445.435 304.593C444.448 304.593 443.647 305.394 443.647 306.382C443.647 307.37 444.448 308.171 445.435 308.171Z" fill="#F0F0F0"/>
<path d="M389.256 140.348C390.243 140.348 391.044 139.547 391.044 138.558C391.044 137.57 390.243 136.769 389.256 136.769C388.268 136.769 387.468 137.57 387.468 138.558C387.468 139.547 388.268 140.348 389.256 140.348Z" fill="#F0F0F0"/>
<path d="M386.746 106.518C387.733 106.518 388.534 105.717 388.534 104.728C388.534 103.74 387.733 102.939 386.746 102.939C385.759 102.939 384.958 103.74 384.958 104.728C384.958 105.717 385.759 106.518 386.746 106.518Z" fill="#F0F0F0"/>
<path d="M484.751 313.992C487.698 305.454 492.631 297.739 499.144 291.484C500.004 290.66 500.888 289.864 501.797 289.096C510.8 281.475 521.931 276.815 533.676 275.752C537.967 281.905 541.711 288.423 544.865 295.231C545.346 296.271 545.812 297.325 546.265 298.394C546.694 299.416 547.11 300.451 547.503 301.496C552.646 315.054 554.65 330.247 548.08 342.903C541.526 355.525 527.331 362.999 513.157 364.036C504.959 364.525 496.742 363.439 488.952 360.836C484.732 353.345 482.252 345.001 481.695 336.42C481.625 335.34 481.59 334.259 481.579 333.173C481.534 326.645 482.606 320.157 484.751 313.992Z" fill="#6E54AC"/>
<path d="M461.089 302.656C463.96 294.376 474.703 289.502 491.343 288.926C494.673 288.809 498.335 290.194 501.797 289.096C518.591 283.766 533.827 287.249 546.265 298.394C546.694 299.415 547.109 300.451 547.503 301.496C547.338 301.434 547.171 301.376 547.004 301.318C530.198 295.481 513.515 292.074 499.144 291.484C496.488 291.377 493.321 289.839 491.429 291.45C476.238 304.388 465.963 298.967 463.472 303.484C459.833 310.082 466.288 320.362 477.969 330.263C479.124 331.243 480.328 332.213 481.579 333.173C481.59 334.259 481.625 335.34 481.695 336.42C479.811 335.026 478.025 333.616 476.339 332.191C463.633 321.422 458.218 310.932 461.089 302.656Z" fill="#E4E4E4"/>
<path d="M524.033 361.301C525.02 361.301 525.821 360.5 525.821 359.512C525.821 358.524 525.02 357.723 524.033 357.723C523.046 357.723 522.245 358.524 522.245 359.512C522.245 360.5 523.046 361.301 524.033 361.301Z" fill="#F0F0F0"/>
<path d="M492.403 338.29C493.39 338.29 494.19 337.489 494.19 336.501C494.19 335.513 493.39 334.712 492.403 334.712C491.415 334.712 490.615 335.513 490.615 336.501C490.615 337.489 491.415 338.29 492.403 338.29Z" fill="#F0F0F0"/>
<path d="M516.603 343.152C526.204 343.152 533.988 335.363 533.988 325.755C533.988 316.146 526.204 308.357 516.603 308.357C507.001 308.357 499.217 316.146 499.217 325.755C499.217 335.363 507.001 343.152 516.603 343.152Z" fill="#F0F0F0"/>
<path opacity="0.3" d="M243.454 133.42C247.518 133.611 255.924 135.631 265.032 138.242C274.135 140.856 284.009 144.044 293.757 147.198C310.821 152.715 327.884 158.23 344.947 163.743C347.293 164.5 349.645 165.263 352.003 166.034C352.907 167.216 353.805 168.41 354.687 169.615C352.613 168.882 350.532 168.172 348.456 167.496C339.589 164.613 331.895 162.711 323.29 160.087C310.046 156.054 296.075 150.756 282.524 145.823C268.975 140.885 253.43 135.571 243.454 133.42Z" fill="#F0F0F0"/>
<path opacity="0.3" d="M546.862 98.3964L585.243 162.157L549.027 97.1282C548.985 96.9217 548.894 96.7283 548.762 96.5639C548.63 96.3995 548.461 96.269 548.269 96.1831C548.076 96.0972 547.866 96.0584 547.656 96.07C547.446 96.0816 547.241 96.1431 547.06 96.2496C546.878 96.3561 546.724 96.5044 546.611 96.6822C546.498 96.8601 546.429 97.0623 546.41 97.2722C546.39 97.4821 546.421 97.6935 546.5 97.889C546.579 98.0845 546.703 98.2584 546.862 98.3964Z" fill="#F0F0F0"/>
<path d="M528.143 286.568C529.13 286.568 529.93 285.767 529.93 284.779C529.93 283.791 529.13 282.99 528.143 282.99C527.155 282.99 526.355 283.791 526.355 284.779C526.355 285.767 527.155 286.568 528.143 286.568Z" fill="#F0F0F0"/>
<path d="M214.566 280.662C220.896 280.662 226.027 275.527 226.027 269.193C226.027 262.859 220.896 257.724 214.566 257.724C208.236 257.724 203.105 262.859 203.105 269.193C203.105 275.527 208.236 280.662 214.566 280.662Z" fill="#6E54AC"/>
<path d="M207.776 262.896C206.621 262.58 205.548 262.014 204.635 261.238C203.722 260.462 202.99 259.495 202.49 258.405C201.991 257.315 201.736 256.129 201.744 254.93C201.752 253.731 202.023 252.549 202.537 251.466L181.784 231.02L196.585 227.86L214.023 247.76C215.783 248.745 217.122 250.342 217.784 252.249C218.447 254.155 218.388 256.239 217.618 258.105C216.848 259.97 215.421 261.488 213.607 262.372C211.793 263.255 209.718 263.441 207.776 262.896L207.776 262.896Z" fill="#A0616A"/>
<path d="M108.55 103.774L120.123 111.408L133.67 114.584C133.67 114.584 144.414 191.428 149.694 196.038C154.974 200.647 150.525 201.084 151.956 207.442C153.387 213.8 156.698 226.807 156.698 226.807C124.537 246.756 95.8058 249.192 71.2931 230.086C70.9104 228.827 70.9691 227.475 71.4597 226.254C71.9502 225.032 72.8431 224.016 73.9902 223.372C78.1349 220.795 69.1449 210.702 72.5378 208.68C75.9307 206.659 69.9352 191.538 69.9352 191.538L70.9814 159.066L68.0686 154.086L72.1719 122.114L82.7495 117.41L86.3711 106.667L108.55 103.774Z" fill="#6E54AC"/>
<path d="M113.565 106.47L132.648 112.83C132.648 112.83 153.759 110.599 154.614 142.047C155.469 173.495 151.535 190.37 151.535 190.37C151.535 190.37 195.448 278.741 147.88 252.641L133.98 197.867L119.653 111.846L113.565 106.47Z" fill="#2F2E41"/>
<path d="M132.703 175.997L142.602 174.629C142.602 174.629 143.557 189.563 148.292 191.827C153.027 194.09 151.431 194.463 151.989 196.859C152.548 199.255 147.779 205.894 151.53 207.545C155.28 209.196 188.062 250.555 188.062 250.555L207.403 232.634C206.074 229.03 199.677 231.963 199.276 228.142C198.772 222.365 188.648 206.583 186.493 204.56C184.338 202.536 185.19 198.969 184.074 194.177C182.957 189.385 183.732 193.828 181.871 185.841C180.01 177.855 154.788 137.159 153.911 129.785C153.034 122.41 142.766 118.07 142.766 118.07L134.785 119.932L132.703 175.997Z" fill="#2F2E41"/>
<path d="M49.1262 441.573L60.7764 444.634L78.1208 401.121L60.9262 396.602L49.1262 441.573Z" fill="#A0616A"/>
<path d="M45.5241 453.627L81.3503 463.041L81.4693 462.588C82.4403 458.887 81.9025 454.952 79.9743 451.647C78.0461 448.343 74.8853 445.941 71.1871 444.969L71.1862 444.968L65.9461 438.28L52.4323 440.04L49.3049 439.218L45.5241 453.627Z" fill="#2F2E41"/>
<path d="M108.85 450.294L120.895 450.294L126.625 403.799L108.847 403.8L108.85 450.294Z" fill="#A0616A"/>
<path d="M108.426 462.869L145.466 462.868V462.399C145.466 458.573 143.947 454.903 141.243 452.197C138.54 449.492 134.873 447.972 131.049 447.971H131.048L124.282 442.835L111.658 447.972L108.425 447.972L108.426 462.869Z" fill="#2F2E41"/>
<path d="M78.7229 227.8C75.8132 231.44 77.2681 243.815 77.2681 243.815C77.2681 243.815 72.1761 283.853 74.3584 287.492C76.5407 291.132 72.9035 294.044 70.7212 299.14C68.5389 304.235 66.3567 316.611 66.3567 316.611C53.9904 326.802 54.7179 373.391 54.7179 373.391L50.3533 414.884C51.8082 419.252 72.1762 419.98 75.0859 419.252C77.9956 418.524 106.365 315.883 106.365 315.883C106.365 315.883 104.91 414.884 104.91 419.252C104.91 423.62 124.551 421.436 128.915 421.436C133.28 421.436 160.922 243.087 160.922 243.087V232.896L157.285 227.8C157.285 227.8 81.6327 224.16 78.7229 227.8Z" fill="#2F2E41"/>
<path d="M85.628 108.621L67.7643 120.01L59.124 127.258L70.5852 200.376C70.5852 200.376 53.1721 266.839 80.6137 262.741C108.055 258.644 106.517 198.915 106.517 198.915L85.628 108.621Z" fill="#2F2E41"/>
<path d="M109.531 212.488C108.5 213.099 107.348 213.476 106.155 213.593C104.963 213.71 103.76 213.565 102.63 213.166C101.5 212.767 100.471 212.125 99.6157 211.286C98.7605 210.446 98.0996 209.429 97.6797 208.306L68.5657 209.01L76.5896 196.169L103.007 197.47C104.938 196.889 107.016 197.037 108.846 197.887C110.675 198.736 112.13 200.228 112.935 202.079C113.739 203.93 113.836 206.012 113.209 207.931C112.582 209.849 111.273 211.471 109.531 212.488Z" fill="#A0616A"/>
<path d="M95.0057 98.7332C107.712 98.7332 118.013 88.425 118.013 75.7091C118.013 62.9933 107.712 52.6851 95.0057 52.6851C82.299 52.6851 71.9982 62.9933 71.9982 75.7091C71.9982 88.425 82.299 98.7332 95.0057 98.7332Z" fill="#A0616A"/>
<path d="M68.9088 60.5808C71.4923 56.5811 76.3404 53.9154 81.0402 54.6645C81.4777 51.6629 82.7296 48.839 84.6598 46.5002C86.5899 44.1614 89.1243 42.3973 91.9869 41.4001C94.8495 40.4029 97.9306 40.2107 100.895 40.8445C103.859 41.4783 106.593 42.9138 108.798 44.9947C109.523 44.4837 110.368 44.1687 111.251 44.0804C112.133 43.992 113.024 44.1331 113.836 44.4902C115.453 45.2262 116.861 46.3566 117.929 47.7778C120.626 51.1434 122.36 55.1777 122.947 59.4515C123.535 63.7253 122.953 68.0784 121.264 72.0477C121.839 69.9581 119.746 67.9922 117.632 67.5233C115.518 67.0544 113.3 67.498 111.156 67.1926C108.408 66.8013 105.938 65.206 103.185 64.847C100.872 64.5453 98.5458 65.1388 96.2902 65.7337C94.0345 66.3285 91.7143 66.9352 89.3979 66.6599C87.0813 66.3846 84.0974 75.1699 84.1374 81.3577C84.145 82.5303 83.9036 84.0358 82.7585 84.2846C81.3482 84.5911 80.531 82.6433 79.1887 82.1125C78.5701 81.9351 77.9068 82.0049 77.3386 82.3073C76.7705 82.6096 76.3417 83.1209 76.1429 83.7334C75.9737 84.356 75.9556 85.0101 76.09 85.6412C76.2245 86.2723 76.5076 86.8621 76.9158 87.3615C77.7409 88.3517 78.7204 89.202 79.8164 89.8795L79.2636 90.3396C78.344 91.5553 76.4366 91.608 75.1111 90.8559C73.8437 89.9969 72.8173 88.8274 72.1297 87.4588C69.6776 83.3773 67.5267 79.0286 66.6613 74.3456C65.7959 69.6625 66.3255 64.5805 68.9088 60.5808Z" fill="#2F2E41"/>
<path d="M77.0321 129.409L66.6933 120.543C66.6933 120.543 54.6217 124.312 52.5749 132.237C36.4638 152.852 27.7872 176.929 25.4568 203.96C46.4907 211.91 72.2464 214.731 99.9544 215.43L94.2238 193.925L54.826 186.756L77.0321 129.409Z" fill="#2F2E41"/>
<path d="M40.4002 452.733L34.8773 443.851L33.7742 448.927C33.5808 449.815 33.3874 450.719 33.2083 451.615C31.6396 450.274 29.9705 449.034 28.3374 447.844C23.3232 444.203 18.3112 440.556 13.3016 436.905L14.8703 446.009C15.8375 451.615 16.8476 457.335 19.24 462.46C19.5051 463.041 19.7915 463.615 20.0997 464.174H43.4089C43.5964 463.654 43.7261 463.116 43.7957 462.568C43.8015 462.532 43.8038 462.496 43.8027 462.46C44.1682 458.984 42.2483 455.708 40.4002 452.733Z" fill="#F2F2F2"/>
<path d="M246.393 442.529L256.842 425.727L258.929 435.328C259.295 437.01 259.66 438.719 259.999 440.414C262.967 437.878 266.125 435.532 269.214 433.281C278.7 426.391 288.182 419.493 297.66 412.586L294.692 429.809C292.862 440.414 290.951 451.236 286.425 460.932C285.924 462.031 285.382 463.116 284.799 464.174H240.701C240.347 463.191 240.101 462.172 239.969 461.136C239.958 461.069 239.954 461 239.956 460.932C239.265 454.355 242.897 448.157 246.393 442.529Z" fill="#F2F2F2"/>
<path d="M238.196 464.532H190.22C188.033 464.53 185.937 463.66 184.391 462.113C182.845 460.566 181.976 458.468 181.973 456.28V287.839C181.976 285.651 182.845 283.554 184.391 282.007C185.937 280.46 188.033 279.59 190.22 279.587H238.196C240.383 279.59 242.479 280.46 244.025 282.007C245.571 283.554 246.44 285.651 246.443 287.839V456.28C246.44 458.468 245.571 460.566 244.025 462.113C242.479 463.66 240.383 464.53 238.196 464.532Z" fill="#F2F2F2"/>
<path d="M226.868 283.888H202.264C201.443 283.887 200.655 283.56 200.074 282.979C199.493 282.397 199.166 281.609 199.165 280.786V271.936C199.166 271.114 199.493 270.326 200.074 269.744C200.655 269.163 201.443 268.836 202.264 268.835H226.868C227.69 268.836 228.477 269.163 229.058 269.744C229.639 270.326 229.966 271.114 229.967 271.936V280.786C229.966 281.609 229.639 282.397 229.058 282.979C228.477 283.56 227.69 283.887 226.868 283.888Z" fill="#3F3D56"/>
<path d="M297.232 464.78L0.85292 465C0.627141 464.999 0.410838 464.909 0.251419 464.749C0.0919997 464.589 0.00247192 464.372 0.00247192 464.146C0.00247192 463.92 0.0919997 463.704 0.251419 463.544C0.410838 463.384 0.627141 463.294 0.85292 463.293L297.232 463.073C297.457 463.073 297.674 463.163 297.833 463.323C297.993 463.483 298.082 463.7 298.082 463.926C298.082 464.152 297.993 464.369 297.833 464.529C297.674 464.689 297.457 464.779 297.232 464.78Z" fill="#CACACA"/>
</g>
<defs>
<clipPath id="clip0_1_89">
<rect width="617" height="465" fill="white"/>
</clipPath>
</defs>
</svg>
