<svg width="614" height="511" viewBox="0 0 614 511" fill="none" xmlns="http://www.w3.org/2000/svg">
<g clip-path="url(#clip0_1_35)">
<path d="M153.216 393.258H593.897C596.42 393.258 598.919 392.761 601.251 391.796C603.583 390.83 605.701 389.415 607.486 387.631C609.27 385.847 610.686 383.729 611.651 381.398C612.617 379.067 613.114 376.568 613.114 374.045V119.28C613.118 117.577 612.891 115.882 612.441 114.24C611.335 110.17 608.92 106.576 605.569 104.015C602.217 101.454 598.115 100.066 593.897 100.067H421.773C417.757 106.829 415.283 114.393 414.525 122.221C412.39 144.976 425.441 166.013 437.118 185.668C448.796 205.324 459.933 228.176 453.749 250.188C449.567 265.033 438.235 275.778 424.174 282.217C410.663 288.195 395.801 290.457 381.123 288.772C372.308 287.659 363.624 285.677 355.199 282.855C344.15 279.268 333.359 274.617 322.585 269.914C322.576 269.914 322.576 269.914 322.567 269.905C322.381 269.825 322.186 269.737 322 269.657C313.663 266.017 305.334 262.367 296.882 259.152C286.978 255.28 276.698 252.448 266.208 250.702C250.269 248.204 234.197 249.107 219.977 256.335C196.799 268.107 184.377 293.546 174.658 317.657C164.841 342.033 156.043 367.225 153.216 393.258Z" fill="#6E54AC"/>
<path d="M0.885986 295.796V374.045C0.88585 376.568 1.38282 379.067 2.34853 381.398C3.31425 383.729 4.7298 385.847 6.51433 387.631C8.29885 389.415 10.4174 390.83 12.749 391.795C15.0807 392.761 17.5797 393.258 20.1034 393.258H93.3581C94.6251 381.45 93.5619 369.687 88.9104 358.713C78.7745 334.779 54.2499 320.624 30.8684 309.26C21.0426 304.486 11.0484 299.88 0.885986 295.796Z" fill="#6E54AC"/>
<path d="M77.6555 375.188V375.188C77.6555 380.284 79.6802 385.17 83.2842 388.773C86.8881 392.376 91.7762 394.4 96.8729 394.4H170.128C171.395 382.593 170.331 370.83 165.68 359.855C163.297 354.228 157.731 347.995 150.477 341.699C122.02 316.996 77.6555 337.51 77.6555 375.188Z" fill="#6E54AC"/>
<path d="M0 374.045V119.28C0.00604076 113.951 2.12601 108.843 5.89481 105.075C9.66361 101.307 14.7735 99.1877 20.1034 99.1816H593.897C599.227 99.1877 604.336 101.307 608.105 105.075C611.874 108.843 613.994 113.951 614 119.28V374.045C613.994 379.373 611.874 384.482 608.105 388.25C604.336 392.018 599.227 394.137 593.897 394.143H20.1034C14.7734 394.137 9.66348 392.018 5.89467 388.25C2.12586 384.482 0.00594928 379.373 0 374.045ZM20.1034 100.953C15.2432 100.959 10.5837 102.891 7.14713 106.327C3.71051 109.763 1.77743 114.421 1.77201 119.28V374.045C1.77735 378.904 3.71037 383.562 7.14699 386.998C10.5836 390.434 15.2432 392.366 20.1034 392.372H593.897C598.757 392.366 603.416 390.434 606.853 386.998C610.29 383.562 612.223 378.904 612.228 374.045V119.28C612.223 114.421 610.289 109.763 606.853 106.327C603.416 102.891 598.757 100.959 593.897 100.953H20.1034Z" fill="#3F3D56"/>
<path d="M189.879 392.629H215.937C220.393 377.627 226.826 361.725 232.7 347.234C243.97 319.449 258.367 290.132 285.24 276.565C296.714 270.773 309.224 268.51 322 268.633C339.649 268.8 357.795 273.537 374.407 279.814C381.203 282.376 387.936 285.193 394.643 288.072C419.912 298.927 444.906 310.751 472.08 313.947C506.466 317.988 546.894 302.607 556.286 269.478C563.454 244.114 550.544 217.782 537.006 195.13C523.468 172.477 508.335 148.24 510.807 122.014C510.816 121.926 510.825 121.829 510.843 121.741C511.773 112.321 517.399 105.551 525.258 101.21H491.04C490.589 125.676 504.747 147.272 517.488 168.595C531.026 191.238 543.935 217.58 536.767 242.944C527.376 276.064 449.608 237.24 415.223 233.19C405.512 232.055 420.937 236.095 411.679 233.19C397.157 228.639 395.547 270.385 381.415 264.258C372.617 260.437 363.81 256.642 354.888 253.271C351.194 251.871 347.419 250.559 343.601 249.344C343.592 249.344 343.592 249.344 343.583 249.335C317.942 241.218 289.9 238.057 266.208 249.793C266.049 249.872 265.881 249.951 265.721 250.031C238.849 263.589 224.451 292.906 213.181 320.69C203.869 343.66 194.469 368.401 189.879 392.629Z" fill="#3F3D56"/>
<path d="M190.162 210.025H20.6776C19.2888 210.025 17.9569 210.577 16.9749 211.559C15.993 212.54 15.4413 213.872 15.4413 215.26C15.4413 216.649 15.993 217.98 16.9749 218.962C17.9569 219.944 19.2888 220.495 20.6776 220.495H190.162C191.551 220.495 192.883 219.944 193.865 218.962C194.847 217.98 195.399 216.649 195.399 215.26C195.399 213.872 194.847 212.54 193.865 211.559C192.883 210.577 191.551 210.025 190.162 210.025Z" fill="#3F3D56"/>
<path d="M73.3446 180.673H20.7954C19.4066 180.673 18.0748 181.224 17.0928 182.206C16.1108 183.188 15.5591 184.519 15.5591 185.908C15.5591 187.296 16.1108 188.627 17.0928 189.609C18.0748 190.591 19.4066 191.142 20.7954 191.142H73.3446C74.7333 191.142 76.0652 190.591 77.0472 189.609C78.0292 188.627 78.5809 187.296 78.5809 185.908C78.5809 184.519 78.0292 183.188 77.0472 182.206C76.0652 181.224 74.7333 180.673 73.3446 180.673H73.3446Z" fill="#3F3D56"/>
<path d="M275.988 487.108L265.246 487.017L260.492 444.632L276.344 444.766L275.988 487.108Z" fill="#FFB6B6"/>
<path d="M241.582 504.184C241.573 505.457 242.069 506.681 242.961 507.589C243.854 508.497 245.07 509.014 246.343 509.027L267.699 509.205L271.438 501.629L272.811 509.244L280.869 509.317L278.834 482.157L276.031 481.971L264.596 481.183L260.907 480.936L260.842 488.62L243.687 500.253C243.044 500.689 242.517 501.275 242.15 501.959C241.784 502.644 241.589 503.407 241.582 504.184Z" fill="#2F2E41"/>
<path d="M384.966 487.108L374.225 487.017L369.47 444.632L385.323 444.766L384.966 487.108Z" fill="#FFB6B6"/>
<path d="M350.561 504.184C350.551 505.457 351.047 506.681 351.94 507.589C352.832 508.497 354.049 509.014 355.322 509.027L376.678 509.205L380.416 501.629L381.789 509.244L389.847 509.317L387.813 482.157L385.009 481.971L373.574 481.183L369.885 480.936L369.82 488.62L352.665 500.253C352.022 500.689 351.495 501.275 351.129 501.959C350.762 502.644 350.567 503.407 350.561 504.184Z" fill="#2F2E41"/>
<path d="M262.737 147.676L311.08 110.482C313.123 108.9 314.463 106.578 314.809 104.018C315.155 101.457 314.481 98.8633 312.931 96.7957C312.129 95.726 311.118 94.8308 309.959 94.1646C308.8 93.4984 307.517 93.0753 306.189 92.9208C304.861 92.7664 303.516 92.884 302.234 93.2665C300.953 93.6489 299.764 94.2882 298.738 95.1453L249.706 135.32L218.884 158.477C217.358 157.59 215.597 157.195 213.839 157.344C212.081 157.493 210.412 158.179 209.057 159.31C207.703 160.44 206.73 161.96 206.27 163.663C205.81 165.366 205.886 167.169 206.486 168.828C207.087 170.486 208.184 171.92 209.628 172.933C211.072 173.947 212.793 174.491 214.557 174.493C216.322 174.494 218.044 173.953 219.49 172.942C220.935 171.931 222.035 170.5 222.639 168.842L262.737 147.676Z" fill="#FFB6B6"/>
<path d="M302.139 156.227L300.008 203.805L372.382 212.56C366.687 193.442 357.348 166.888 361.627 153.583L302.139 156.227Z" fill="#A0616A"/>
<path d="M343.278 69.002H320.985L311.41 85.3808L306.848 85.129C297.957 88.5524 294.413 92.0955 289.507 101.535L272.263 116.011L285.553 131.955C294.733 130.452 298.043 123.328 295.128 110.245C295.128 110.245 285.075 127.76 299.556 136.376C299.556 136.376 296.973 152.611 299.556 152.436C302.139 152.262 308.087 148.958 302.139 152.262C296.19 155.566 297.209 155.708 297.403 156.779C300.615 174.472 303.273 187.759 303.273 187.759L366.18 193.959C366.18 193.959 362.555 155.926 362.752 153.763C362.949 151.601 361.627 156.887 362.949 151.601C364.271 146.314 366.254 148.297 364.271 146.314C362.288 144.332 377.902 142.625 371.808 133.098L392.187 127.783L380.796 100.718C380.796 91.58 366.115 84.1719 356.974 84.1719H355.803L343.278 69.002Z" fill="#E6E6E6"/>
<path d="M367.002 186.773C342.392 195.236 320.236 193.378 301.502 177.13C301.502 177.13 296.229 196.616 290.891 193.959C285.553 191.302 288.192 198.738 286.725 201.464C285.169 204.358 286.976 209.241 281.835 210.9C276.693 212.56 278.625 217.439 276.96 221.029C265.313 246.153 252.011 281.717 243.025 326.825C233.791 373.176 256.315 450.833 256.315 450.833L277.579 449.061L282.896 348.083L307.21 305.401C307.21 305.401 319.155 298.448 311.657 294.921C304.16 291.394 309.183 287.023 314.645 287.88C320.108 288.737 326.31 260.392 326.31 260.392C318.521 279.96 367.066 452.604 367.066 452.604L387.444 450.833L375.926 209.903L367.002 186.773Z" fill="#2F2E41"/>
<path d="M356.509 27.8826C358.926 33.8999 365.744 45.7331 366.667 52.1884L366.252 51.7798C365.459 53.1339 364.558 54.4218 363.557 55.6309C361.764 53.7485 359.599 52.2599 357.199 51.2601C358.51 53.9485 359.269 56.8719 359.431 59.8582C354.993 63.7221 343.658 61.3909 337.994 63.4502C328.88 66.756 319.204 67.9328 309.65 68.9102C306.259 69.2592 302.463 69.471 300.086 67.4677C297.71 65.4644 299.125 61.7546 297.847 58.9486C288.74 38.9616 297.144 31.7504 304.285 22.6875C305.856 20.6931 305.85 17.7169 307.762 15.814C310.415 13.1763 314.482 12.365 318.231 11.7151C317.257 11.7664 316.286 11.5662 315.412 11.1337C314.538 10.7013 313.79 10.0511 313.24 9.24585C312.757 8.43454 312.508 7.50577 312.52 6.56197C312.532 5.61818 312.805 4.69604 313.308 3.89724C314.649 1.6747 317.435 0.382261 320.123 0.0593889C322.772 -0.120412 325.432 0.108219 328.011 0.73726C329.682 0.956922 331.3 1.47385 332.788 2.26359C333.49 2.63814 334.061 3.21808 334.425 3.92587C334.789 4.63365 334.927 5.43555 334.823 6.22436C334.599 6.95279 334.213 7.62127 333.695 8.17994C333.176 8.7386 332.538 9.17303 331.829 9.45084C330.746 9.9083 329.608 10.2198 328.443 10.3773C333.792 9.68338 339.225 10.6341 344.02 13.103C350.029 16.3075 354.084 21.8685 356.509 27.8826Z" fill="#2F2E41"/>
<path d="M323.971 61.6179C335.835 61.6179 345.452 52.0033 345.452 40.1431C345.452 28.283 335.835 18.6684 323.971 18.6684C312.108 18.6684 302.491 28.283 302.491 40.1431C302.491 52.0033 312.108 61.6179 323.971 61.6179Z" fill="#FFB6B6"/>
<path d="M344.641 28.6288C343.395 32.3919 339.836 33.6045 336.546 34.3608C335.509 34.6024 334.466 34.8277 333.412 35.0281C333.024 34.5424 332.61 34.0663 332.179 33.6164C330.386 31.7339 328.22 30.2454 325.82 29.2456C326.858 31.3692 327.548 33.6456 327.863 35.988C325.875 36.2764 323.875 36.5122 321.864 36.6952C320.163 37.0572 318.388 36.752 316.905 35.8426C315.422 34.9332 314.346 33.4892 313.898 31.8089C312.068 34.8015 309.903 37.6198 306.944 38.8086C305.251 39.4166 303.408 39.4666 301.685 38.9512C299.962 38.4359 298.449 37.3823 297.369 35.9449C295.596 33.7829 294.609 30.8783 293.899 28.0751C293.059 24.7427 292.592 20.9039 294.242 18.7896C295.563 17.0784 297.842 17.0477 299.945 17.1995C304.586 17.5555 309.179 18.3879 313.65 19.6835L314.028 20.5343C313.26 15.9195 314.926 11.4794 318.01 9.90038C320.09 8.84461 322.593 9.02164 325.024 9.23582C328.147 9.37514 331.233 9.97176 334.183 11.0066C337.567 12.3081 340.466 14.623 342.484 17.6349C344.643 20.9109 345.715 25.3789 344.641 28.6288Z" fill="#2F2E41"/>
<path d="M314.019 8.55737C314.23 8.49481 313.681 8.57516 313.872 8.58026C313.777 8.57478 313.683 8.56162 313.591 8.54092C313.575 8.53778 313.361 8.46954 313.503 8.51966C313.184 8.42429 312.9 8.23862 312.684 7.98507C312.179 7.36127 311.783 6.65694 311.513 5.90165C311.171 4.90355 310.623 3.9889 309.903 3.21775C309.698 3.01256 309.449 2.85845 309.174 2.7679C308.898 2.67736 308.606 2.65293 308.32 2.69662C308.033 2.74031 307.761 2.85088 307.526 3.01935C307.29 3.18782 307.098 3.40943 306.964 3.66622C306.546 4.59137 306.928 5.73127 307.226 6.63992C307.534 7.58403 307.992 8.47229 308.583 9.27048C309.573 10.5757 310.922 11.5648 312.464 12.1173C314.25 12.7656 316.197 12.8212 318.017 12.2759C318.257 12.1762 318.463 12.0087 318.61 11.7939C318.757 11.5791 318.838 11.3263 318.844 11.0661C318.85 10.806 318.779 10.5498 318.642 10.3288C318.505 10.1078 318.306 9.9315 318.07 9.82141L315.035 8.57952C314.876 8.50925 314.704 8.47112 314.529 8.46731C314.355 8.46351 314.181 8.4941 314.018 8.55734C313.856 8.62058 313.707 8.71523 313.581 8.83589C313.455 8.95655 313.354 9.10086 313.284 9.26057C313.213 9.42028 313.175 9.59226 313.171 9.76671C313.168 9.94115 313.198 10.1146 313.262 10.2773C313.325 10.4399 313.419 10.5884 313.54 10.7145C313.661 10.8405 313.805 10.9416 313.965 11.0119L317 12.2537L317.053 9.79923C316.675 9.9085 316.285 9.9751 315.892 9.9978C315.472 10.0398 315.048 10.022 314.633 9.94475C314.236 9.89268 313.846 9.79752 313.469 9.66092C313.228 9.57284 312.991 9.47258 312.76 9.36053C312.676 9.31979 312.593 9.27748 312.511 9.23363C312.517 9.23679 312.163 9.03123 312.318 9.12782C311.926 8.87706 311.558 8.59027 311.218 8.27117C311.099 8.15802 310.988 8.03526 310.888 7.90414C310.716 7.69178 310.555 7.46953 310.408 7.2385C310.109 6.74925 309.873 6.22467 309.703 5.67688C309.626 5.44665 309.561 5.21257 309.508 4.97557C309.494 4.84548 309.47 4.71654 309.438 4.58966C309.325 4.28733 309.459 4.7662 309.33 4.8972L308.77 5.30931C308.665 5.34059 308.554 5.34785 308.446 5.33053C308.338 5.3132 308.235 5.27174 308.145 5.20922C308.079 5.11598 308.093 5.13145 308.189 5.25562C308.299 5.40175 308.401 5.55476 308.492 5.71374C308.693 6.08799 308.874 6.47218 309.036 6.86483C309.369 7.69988 309.792 8.49692 310.295 9.24235C310.788 9.99633 311.506 10.5754 312.348 10.8972C313.19 11.2189 314.111 11.2668 314.982 11.034C315.309 10.904 315.571 10.6508 315.713 10.3291C315.854 10.0073 315.864 9.6428 315.739 9.31417C315.605 8.9903 315.352 8.73061 315.031 8.58954C314.71 8.44846 314.348 8.43694 314.019 8.55737Z" fill="#2F2E41"/>
<path d="M280.517 241.874C315.594 241.874 344.03 213.446 344.03 178.378C344.03 143.31 315.594 114.881 280.517 114.881C245.439 114.881 217.003 143.31 217.003 178.378C217.003 213.446 245.439 241.874 280.517 241.874Z" fill="white"/>
<path d="M280.517 242.76C267.78 242.76 255.329 238.985 244.738 231.91C234.148 224.836 225.894 214.781 221.019 203.016C216.145 191.252 214.87 178.307 217.355 165.818C219.84 153.329 225.973 141.857 234.979 132.853C243.986 123.849 255.46 117.717 267.953 115.233C280.445 112.749 293.393 114.024 305.161 118.896C316.928 123.769 326.986 132.021 334.062 142.609C341.139 153.196 344.916 165.644 344.916 178.378C344.896 195.447 338.105 211.812 326.032 223.882C313.959 235.952 297.59 242.741 280.517 242.76ZM280.517 115.767C268.13 115.767 256.022 119.439 245.723 126.319C235.424 133.199 227.397 142.977 222.657 154.418C217.916 165.859 216.676 178.448 219.093 190.593C221.509 202.738 227.474 213.895 236.233 222.651C244.991 231.407 256.15 237.37 268.299 239.786C280.447 242.202 293.04 240.962 304.483 236.223C315.927 231.484 325.708 223.459 332.589 213.163C339.471 202.866 343.144 190.761 343.144 178.378C343.125 161.778 336.521 145.864 324.78 134.126C313.039 122.388 297.12 115.786 280.517 115.767Z" fill="#3F3D56"/>
<path d="M271.852 211.425C270.755 211.425 269.674 211.17 268.693 210.679C267.712 210.189 266.858 209.476 266.201 208.599L248.873 185.502C248.317 184.76 247.912 183.915 247.681 183.017C247.451 182.118 247.4 181.183 247.531 180.265C247.663 179.347 247.974 178.463 248.446 177.665C248.919 176.867 249.544 176.17 250.287 175.613C251.029 175.057 251.873 174.652 252.772 174.422C253.671 174.192 254.606 174.141 255.525 174.272C256.443 174.403 257.327 174.714 258.125 175.187C258.923 175.659 259.621 176.284 260.177 177.026L271.513 192.136L300.629 148.475C301.143 147.703 301.805 147.04 302.576 146.524C303.347 146.008 304.212 145.649 305.122 145.467C306.032 145.285 306.968 145.284 307.878 145.464C308.789 145.644 309.654 146.002 310.426 146.516C311.198 147.031 311.861 147.692 312.378 148.463C312.894 149.233 313.253 150.098 313.435 151.008C313.617 151.917 313.618 152.854 313.438 153.764C313.258 154.674 312.9 155.539 312.386 156.311L277.731 208.28C277.104 209.219 276.261 209.995 275.272 210.542C274.284 211.089 273.178 211.391 272.049 211.423C271.983 211.424 271.918 211.425 271.852 211.425Z" fill="#6E54AC"/>
<path d="M210.557 509.946C210.556 510.085 210.583 510.222 210.636 510.35C210.689 510.478 210.767 510.594 210.865 510.692C210.963 510.79 211.079 510.868 211.207 510.921C211.335 510.973 211.473 511 211.611 511H436.027C436.306 511 436.575 510.889 436.772 510.691C436.97 510.494 437.081 510.226 437.081 509.946C437.081 509.666 436.97 509.398 436.772 509.201C436.575 509.003 436.306 508.892 436.027 508.892H211.611C211.473 508.891 211.335 508.918 211.207 508.971C211.079 509.024 210.963 509.102 210.865 509.2C210.767 509.298 210.689 509.414 210.636 509.542C210.583 509.67 210.556 509.807 210.557 509.946Z" fill="#CCCCCC"/>
<path d="M409.255 180.55L388.493 123.205C387.606 120.778 385.8 118.797 383.465 117.69C381.13 116.582 378.453 116.437 376.012 117.285C374.749 117.724 373.589 118.415 372.602 119.317C371.615 120.218 370.822 121.311 370.272 122.529C369.721 123.748 369.424 125.065 369.4 126.401C369.375 127.738 369.623 129.065 370.128 130.303L393.521 189.209L406.227 225.601C404.918 226.785 404.006 228.342 403.614 230.062C403.222 231.782 403.369 233.58 404.036 235.214C404.702 236.847 405.855 238.236 407.338 239.191C408.821 240.146 410.562 240.622 412.325 240.554C414.088 240.485 415.788 239.876 417.192 238.808C418.597 237.741 419.638 236.267 420.176 234.587C420.713 232.907 420.72 231.102 420.196 229.418C419.672 227.734 418.642 226.252 417.246 225.173L409.255 180.55Z" fill="#FFB6B6"/>
<path d="M378.01 97.6671L394.844 127.783C394.844 127.783 356.049 141.063 355.955 138.852C355.86 136.641 357.882 105.96 357.882 105.96L378.01 97.6671Z" fill="#E6E6E6"/>
</g>
<defs>
<clipPath id="clip0_1_35">
<rect width="614" height="511" fill="white"/>
</clipPath>
</defs>
</svg>
