<svg width="80" height="80" viewBox="0 0 80 80" fill="none" xmlns="http://www.w3.org/2000/svg">
<path d="M37.5 17.5C34.7 17.5 32.085 18.265 29.85 19.6C29.6091 17.036 28.7884 14.5603 27.45 12.36C30.6915 10.7411 34.2761 9.92899 37.8989 9.99273C41.5217 10.0565 45.0755 10.9942 48.2581 12.7261C51.4407 14.4581 54.1579 16.933 56.1787 19.9405C58.1995 22.9479 59.4641 26.399 59.865 30H66.255C71.085 30 75.005 33.92 75.005 38.75V61.25C75.005 62.3995 74.7785 63.5378 74.3385 64.5997C73.8984 65.6616 73.2535 66.6264 72.4404 67.439C71.6274 68.2516 70.6622 68.896 69.6 69.3354C68.5378 69.7749 67.3995 70.0007 66.25 70H43.75C41.4294 70 39.2038 69.0782 37.5628 67.4372C35.9219 65.7963 35 63.5707 35 61.25V54.865C33.2667 54.6727 31.5617 54.2784 29.92 53.69C29.97 52.51 30 51.28 30 50V49.6C30 48.4 30 46.985 29.95 45.465C31.5082 46.3777 33.2194 46.9995 35 47.3V38.75C35 33.92 38.92 30 43.75 30H52.295C51.7041 26.504 49.8938 23.3303 47.1854 21.0421C44.477 18.7538 41.0456 17.4989 37.5 17.5V17.5ZM59.445 37.5C58.5001 41.6323 56.409 45.4143 53.4116 48.4116C50.4142 51.409 46.6323 53.5002 42.5 54.445V61.25C42.5 61.94 43.06 62.5 43.75 62.5H66.25C66.5815 62.5 66.8995 62.3683 67.1339 62.1339C67.3683 61.8995 67.5 61.5816 67.5 61.25V38.75C67.5 38.4185 67.3683 38.1006 67.1339 37.8662C66.8995 37.6317 66.5815 37.5 66.25 37.5H59.445ZM51.645 37.5H43.75C43.4185 37.5 43.1005 37.6317 42.8661 37.8662C42.6317 38.1006 42.5 38.4185 42.5 38.75V46.65C44.61 45.902 46.5264 44.6924 48.1094 43.1094C49.6923 41.5264 50.902 39.61 51.65 37.5H51.645ZM17.905 5.62504C18.32 5.98805 18.6034 6.47808 18.711 7.01885C18.8186 7.55963 18.7444 8.12081 18.5 8.61504C18.4577 8.76133 18.4358 8.91276 18.435 9.06504C18.435 9.38004 18.515 9.98004 19.27 10.73C19.635 11.095 19.915 11.355 20.22 11.64C20.47 11.87 20.735 12.11 21.07 12.44C21.72 13.06 22.405 13.79 23.02 14.705C24.295 16.62 25 19.015 25 22.5C25 26.66 23.5 30.215 21.14 32.46C22.6 33.94 23.45 35.875 23.975 37.81C25 41.57 25 46.22 25 49.815V50C25 60.29 23.075 66.4 20.895 70.035C20.0714 71.4664 18.9899 72.7327 17.705 73.77C17.1961 74.167 16.6423 74.5026 16.055 74.77C16.055 74.77 15.42 75 15 75C14.6396 74.9714 14.2847 74.894 13.945 74.77C13.3577 74.5026 12.8039 74.167 12.295 73.77C11.0101 72.7327 9.92855 71.4664 9.105 70.035C6.925 66.405 5 60.29 5 50V49.82C5 46.22 5 41.575 6.025 37.805C6.55 35.875 7.4 33.94 8.86 32.455C6.5 30.22 5 26.66 5 22.5C5 20.87 5.435 18.925 6.035 17.13C6.635 15.33 7.475 13.47 8.445 11.97C9.6 10.02 11.225 8.38504 12.485 7.28504C13.1758 6.67752 13.8967 6.10513 14.645 5.57004L14.795 5.47004L14.84 5.43504L14.855 5.42504L14.865 5.42004C15.3235 5.11443 15.8701 4.96884 16.4198 5.00591C16.9696 5.04298 17.4917 5.26064 17.905 5.62504V5.62504Z" fill="#6E54AC"/>
</svg>
