<svg width="80" height="80" viewBox="0 0 80 80" fill="none" xmlns="http://www.w3.org/2000/svg">
<path d="M39.9687 6.36365C20.6484 6.35584 5 21.9965 5 41.3011C5 56.5668 14.7891 69.5433 28.4219 74.3089C30.2578 74.7699 29.9766 73.4652 29.9766 72.5746V66.5199C19.375 67.7621 18.9453 60.7464 18.2344 59.5746C16.7969 57.1214 13.3984 56.4964 14.4141 55.3246C16.8281 54.0824 19.2891 55.6371 22.1406 59.848C24.2031 62.9027 28.2266 62.3871 30.2656 61.8793C30.7109 60.0433 31.6641 58.4027 32.9766 57.1293C21.9922 55.1605 17.4141 48.4574 17.4141 40.4886C17.4141 36.6215 18.6875 33.0668 21.1875 30.1996C19.5937 25.473 21.3359 21.4261 21.5703 20.8246C26.1094 20.4183 30.8281 24.0746 31.1953 24.3636C33.7734 23.6683 36.7187 23.3011 40.0156 23.3011C43.3281 23.3011 46.2812 23.684 48.8828 24.3871C49.7656 23.7152 54.1406 20.5746 58.3594 20.9574C58.5859 21.559 60.2891 25.5121 58.7891 30.1761C61.3203 33.0511 62.6094 36.6371 62.6094 40.5121C62.6094 48.4965 58 55.2074 46.9844 57.1449C47.9279 58.0728 48.6771 59.1794 49.1881 60.4C49.6992 61.6207 49.9619 62.9309 49.9609 64.2543V73.0433C50.0234 73.7464 49.9609 74.4418 51.1328 74.4418C64.9687 69.7777 74.9297 56.7074 74.9297 41.309C74.9297 21.9965 59.2734 6.36365 39.9687 6.36365Z" fill="#6E54AC"/>
</svg>
