<svg width="80" height="80" viewBox="0 0 80 80" fill="#b9314f" xmlns="http://www.w3.org/2000/svg">
    <g clip-path="url(#clip0_1_335)">
        <path
            d="M37.38 0.0200505C37.2067 0.0367171 36.66 0.0933838 36.1667 0.13005C24.8067 1.15672 14.1667 7.28672 7.42 16.7101C3.69434 21.8825 1.2724 27.8778 0.36 34.1867C0.04 36.3867 0 37.0334 0 40.0134C0 42.9934 0.04 43.6434 0.36 45.8401C2.53333 60.8634 13.2267 73.4834 27.7233 78.1601C30.32 78.9967 33.0567 79.5667 36.1667 79.9134C37.38 80.0467 42.62 80.0467 43.8333 79.9134C49.2033 79.3167 53.7567 77.9867 58.2433 75.6967C58.9333 75.3467 59.0667 75.2501 58.9733 75.1734C56.7787 72.2791 54.6064 69.3679 52.4567 66.4401L46.06 57.7967L38.0467 45.9334C35.3804 41.9654 32.6892 38.0142 29.9733 34.0801C29.9433 34.0701 29.9133 39.3401 29.8967 45.7801C29.8733 57.0467 29.8633 57.5001 29.7233 57.7667C29.5868 58.0779 29.3431 58.3298 29.0367 58.4767C28.7867 58.6034 28.57 58.6267 27.3867 58.6267H26.0333L25.6733 58.4001C25.4506 58.2594 25.2698 58.0614 25.15 57.8267L24.9833 57.4767L25 41.7967L25.0233 26.1101L25.2667 25.8034C25.4305 25.6117 25.6268 25.4503 25.8467 25.3267C26.1667 25.1701 26.29 25.1567 27.6467 25.1567C29.24 25.1567 29.5067 25.2167 29.92 25.6701C30.0367 25.7967 34.3767 32.3367 39.57 40.2101L55.35 64.1167L61.6833 73.7101L62.0067 73.5001C65.0547 71.4737 67.818 69.0489 70.2233 66.2901C75.2639 60.521 78.5334 53.4206 79.64 45.8401C79.96 43.6401 80 42.9934 80 40.0134C80 37.0334 79.96 36.3867 79.64 34.1867C77.4667 19.1667 66.7733 6.54338 52.2767 1.86672C49.5673 1.00528 46.7774 0.421175 43.95 0.123384C43.1967 0.0433838 38.03 -0.0432829 37.3833 0.0233838L37.38 0.0200505ZM53.7567 24.2201C53.9426 24.3137 54.1081 24.4432 54.2437 24.6011C54.3792 24.759 54.4822 24.9421 54.5467 25.1401C54.6067 25.3401 54.6233 29.6901 54.6067 39.4901L54.5833 53.5501L52.1067 49.7501L49.62 45.9501V35.7301C49.62 29.1201 49.65 25.4067 49.6967 25.2267C49.7522 25.0185 49.8493 24.8237 49.9822 24.6541C50.1151 24.4845 50.2811 24.3437 50.47 24.2401C50.7933 24.0734 50.91 24.0601 52.1367 24.0601C53.2933 24.0601 53.4967 24.0767 53.7567 24.2167V24.2201Z"
            fill="#b9314f" />
    </g>
    <defs>
        <clipPath id="clip0_1_335">
            <rect width="80" height="80" fill="white" />
        </clipPath>
    </defs>
</svg>