<svg xmlns="http://www.w3.org/2000/svg" viewBox="0 0 1440 320"><path fill="#231B1B" fill-opacity="1" d="M0,128L17.1,128C34.3,128,69,128,103,149.3C137.1,171,171,213,206,234.7C240,256,274,256,309,250.7C342.9,245,377,235,411,213.3C445.7,192,480,160,514,144C548.6,128,583,128,617,133.3C651.4,139,686,149,720,138.7C754.3,128,789,96,823,69.3C857.1,43,891,21,926,37.3C960,53,994,107,1029,128C1062.9,149,1097,139,1131,117.3C1165.7,96,1200,64,1234,74.7C1268.6,85,1303,139,1337,165.3C1371.4,192,1406,192,1423,192L1440,192L1440,320L1422.9,320C1405.7,320,1371,320,1337,320C1302.9,320,1269,320,1234,320C1200,320,1166,320,1131,320C1097.1,320,1063,320,1029,320C994.3,320,960,320,926,320C891.4,320,857,320,823,320C788.6,320,754,320,720,320C685.7,320,651,320,617,320C582.9,320,549,320,514,320C480,320,446,320,411,320C377.1,320,343,320,309,320C274.3,320,240,320,206,320C171.4,320,137,320,103,320C68.6,320,34,320,17,320L0,320Z"></path></svg>