<svg xmlns="http://www.w3.org/2000/svg" viewBox="0 0 1440 320"><path fill="#52515183" fill-opacity="1" d="M0,32L21.8,53.3C43.6,75,87,117,131,144C174.5,171,218,181,262,154.7C305.5,128,349,64,393,53.3C436.4,43,480,85,524,138.7C567.3,192,611,256,655,272C698.2,288,742,256,785,229.3C829.1,203,873,181,916,181.3C960,181,1004,203,1047,224C1090.9,245,1135,267,1178,266.7C1221.8,267,1265,245,1309,213.3C1352.7,181,1396,139,1418,117.3L1440,96L1440,0L1418.2,0C1396.4,0,1353,0,1309,0C1265.5,0,1222,0,1178,0C1134.5,0,1091,0,1047,0C1003.6,0,960,0,916,0C872.7,0,829,0,785,0C741.8,0,698,0,655,0C610.9,0,567,0,524,0C480,0,436,0,393,0C349.1,0,305,0,262,0C218.2,0,175,0,131,0C87.3,0,44,0,22,0L0,0Z"></path></svg>